<svg id="visual" viewBox="0 0 900 100" width="900" height="100" xmlns="http://www.w3.org/2000/svg" xmlns:xlink="http://www.w3.org/1999/xlink" version="1.1"><path d="M0 93L13.7 90.2C27.3 87.3 54.7 81.7 82 71C109.3 60.3 136.7 44.7 163.8 35C191 25.3 218 21.7 245.2 28.7C272.3 35.7 299.7 53.3 327 65.5C354.3 77.7 381.7 84.3 409 86C436.3 87.7 463.7 84.3 491 81C518.3 77.7 545.7 74.3 573 65.5C600.3 56.7 627.7 42.3 654.8 38C682 33.7 709 39.3 736.2 49C763.3 58.7 790.7 72.3 818 67.2C845.3 62 872.7 38 886.3 26L900 14L900 101L886.3 101C872.7 101 845.3 101 818 101C790.7 101 763.3 101 736.2 101C709 101 682 101 654.8 101C627.7 101 600.3 101 573 101C545.7 101 518.3 101 491 101C463.7 101 436.3 101 409 101C381.7 101 354.3 101 327 101C299.7 101 272.3 101 245.2 101C218 101 191 101 163.8 101C136.7 101 109.3 101 82 101C54.7 101 27.3 101 13.7 101L0 101Z" fill="#780b39" stroke-linecap="round" stroke-linejoin="miter"></path></svg>