<svg id="visual" viewBox="0 0 900 600" width="900" height="600" xmlns="http://www.w3.org/2000/svg" xmlns:xlink="http://www.w3.org/1999/xlink" version="1.1"><path d="M0 439L15 434.2C30 429.3 60 419.7 90 422.8C120 426 150 442 180 440.5C210 439 240 420 270 410.7C300 401.3 330 401.7 360 409.8C390 418 420 434 450 442C480 450 510 450 540 450.7C570 451.3 600 452.7 630 453.8C660 455 690 456 720 456.7C750 457.3 780 457.7 810 459.5C840 461.3 870 464.7 885 466.3L900 468L900 601L885 601C870 601 840 601 810 601C780 601 750 601 720 601C690 601 660 601 630 601C600 601 570 601 540 601C510 601 480 601 450 601C420 601 390 601 360 601C330 601 300 601 270 601C240 601 210 601 180 601C150 601 120 601 90 601C60 601 30 601 15 601L0 601Z" fill="#65002a"></path><path d="M0 442L15 446.5C30 451 60 460 90 461.3C120 462.7 150 456.3 180 462.2C210 468 240 486 270 494C300 502 330 500 360 500.3C390 500.7 420 503.3 450 502.7C480 502 510 498 540 493.7C570 489.3 600 484.7 630 483.5C660 482.3 690 484.7 720 487.8C750 491 780 495 810 490C840 485 870 471 885 464L900 457L900 601L885 601C870 601 840 601 810 601C780 601 750 601 720 601C690 601 660 601 630 601C600 601 570 601 540 601C510 601 480 601 450 601C420 601 390 601 360 601C330 601 300 601 270 601C240 601 210 601 180 601C150 601 120 601 90 601C60 601 30 601 15 601L0 601Z" fill="#7f0237"></path><path d="M0 490L15 494.2C30 498.3 60 506.7 90 514.8C120 523 150 531 180 526.5C210 522 240 505 270 499.8C300 494.7 330 501.3 360 500.5C390 499.7 420 491.3 450 488C480 484.7 510 486.3 540 491.3C570 496.3 600 504.7 630 507C660 509.3 690 505.7 720 501.7C750 497.7 780 493.3 810 498.2C840 503 870 517 885 524L900 531L900 601L885 601C870 601 840 601 810 601C780 601 750 601 720 601C690 601 660 601 630 601C600 601 570 601 540 601C510 601 480 601 450 601C420 601 390 601 360 601C330 601 300 601 270 601C240 601 210 601 180 601C150 601 120 601 90 601C60 601 30 601 15 601L0 601Z" fill="#990644"></path><path d="M0 540L15 546.3C30 552.7 60 565.3 90 563.3C120 561.3 150 544.7 180 544.2C210 543.7 240 559.3 270 562.3C300 565.3 330 555.7 360 555.8C390 556 420 566 450 565.3C480 564.7 510 553.3 540 552.3C570 551.3 600 560.7 630 564.7C660 568.7 690 567.3 720 560C750 552.7 780 539.3 810 532.3C840 525.3 870 524.7 885 524.3L900 524L900 601L885 601C870 601 840 601 810 601C780 601 750 601 720 601C690 601 660 601 630 601C600 601 570 601 540 601C510 601 480 601 450 601C420 601 390 601 360 601C330 601 300 601 270 601C240 601 210 601 180 601C150 601 120 601 90 601C60 601 30 601 15 601L0 601Z" fill="#b50b52"></path></svg>