<svg id="visual" viewBox="0 0 900 200" width="900" height="200" xmlns="http://www.w3.org/2000/svg" xmlns:xlink="http://www.w3.org/1999/xlink" version="1.1"><path d="M0 17L21.5 32.3C43 47.7 86 78.3 128.8 78.3C171.7 78.3 214.3 47.7 257.2 31.2C300 14.7 343 12.3 385.8 32.8C428.7 53.3 471.3 96.7 514.2 117.8C557 139 600 138 642.8 115.3C685.7 92.7 728.3 48.3 771.2 34.5C814 20.7 857 37.3 878.5 45.7L900 54L900 201L878.5 201C857 201 814 201 771.2 201C728.3 201 685.7 201 642.8 201C600 201 557 201 514.2 201C471.3 201 428.7 201 385.8 201C343 201 300 201 257.2 201C214.3 201 171.7 201 128.8 201C86 201 43 201 21.5 201L0 201Z" fill="#e91e63"></path><path d="M0 95L21.5 94.5C43 94 86 93 128.8 105.5C171.7 118 214.3 144 257.2 144.5C300 145 343 120 385.8 111.7C428.7 103.3 471.3 111.7 514.2 105.8C557 100 600 80 642.8 87C685.7 94 728.3 128 771.2 134.3C814 140.7 857 119.3 878.5 108.7L900 98L900 201L878.5 201C857 201 814 201 771.2 201C728.3 201 685.7 201 642.8 201C600 201 557 201 514.2 201C471.3 201 428.7 201 385.8 201C343 201 300 201 257.2 201C214.3 201 171.7 201 128.8 201C86 201 43 201 21.5 201L0 201Z" fill="#ba144c"></path><path d="M0 113L21.5 126.8C43 140.7 86 168.3 128.8 170.7C171.7 173 214.3 150 257.2 137C300 124 343 121 385.8 124.7C428.7 128.3 471.3 138.7 514.2 143.2C557 147.7 600 146.3 642.8 148.5C685.7 150.7 728.3 156.3 771.2 151.7C814 147 857 132 878.5 124.5L900 117L900 201L878.5 201C857 201 814 201 771.2 201C728.3 201 685.7 201 642.8 201C600 201 557 201 514.2 201C471.3 201 428.7 201 385.8 201C343 201 300 201 257.2 201C214.3 201 171.7 201 128.8 201C86 201 43 201 21.5 201L0 201Z" fill="#8d0b37"></path></svg>